<svg xmlns="http://www.w3.org/2000/svg" version="1.1" xmlns:xlink="http://www.w3.org/1999/xlink" xmlns:svgjs="http://svgjs.dev/svgjs" width="1500" height="490" viewBox="0 0 1500 490"><g transform="matrix(1,0,0,1,-1.8351063829786654,-0.05680813008120822)"><svg viewBox="0 0 376 123" data-background-color="#ffffff" preserveAspectRatio="xMidYMid meet" height="490" width="1500" xmlns="http://www.w3.org/2000/svg" xmlns:xlink="http://www.w3.org/1999/xlink"><g id="tight-bounds" transform="matrix(1,0,0,1,0.46023999999999887,0.014669999999966876)"><svg viewBox="0 0 375.07953 122.97107000000007" height="122.97107000000007" width="375.07953"><g><svg></svg></g><g><svg viewBox="0 0 375.07953 122.97107000000007" height="122.97107000000007" width="375.07953"><g transform="matrix(1,0,0,1,-10.22024,-68.08640999999999)"><path d="M10.22 179.114v-111.028h375.08v111.028h-22.464l0-4.056h18.408v-102.916h-366.968v102.916h18.408l0 4.056z" fill="#a3c0c4" fill-rule="nonzero" stroke="none" stroke-width="1" stroke-linecap="butt" stroke-linejoin="miter" stroke-miterlimit="10" stroke-dasharray="" stroke-dashoffset="0" font-family="none" font-weight="none" font-size="none" text-anchor="none" style="mix-blend-mode: normal" data-fill-palette-color="tertiary"></path><g><path d="M44.851 184.042l7.113-20.012h2.717l7.113 20.012h-2.423l-2.025-5.815h-8.255l-2.025 5.815zM56.614 176.127l-3.392-9.761-3.41 9.761zM66.658 170.128l0.432 1.044c1.177-0.873 2.473-1.31 3.888-1.31v0c0.977 0 1.865 0.183 2.666 0.548v0l-0.704 1.846c-0.735-0.285-1.496-0.427-2.285-0.426v0c-1.173 0-2.277 0.325-3.311 0.975v0 11.237h-2.308v-13.914zM83.388 182.225l0.323 1.575c-1.361 0.35-2.423 0.525-3.185 0.525-0.758 0-1.4-0.123-1.927-0.369-0.527-0.242-0.927-0.588-1.2-1.038-0.269-0.454-0.463-0.94-0.582-1.46-0.115-0.519-0.173-1.117-0.173-1.794v0-7.719h-1.875v-1.817h1.875v-3.987h2.307v3.987h4.24v1.817h-4.24v7.69c0 1.923 0.761 2.884 2.285 2.884v0c0.269 0 0.986-0.098 2.152-0.294zM87.022 166.689v-2.659h2.734v2.659zM87.235 184.042v-13.914h2.308v13.914zM100.389 169.862v0c0.196 0 0.381 0.002 0.553 0.006 0.173 0.004 0.342 0.015 0.508 0.035 0.165 0.019 0.306 0.033 0.421 0.04 0.119 0.012 0.256 0.031 0.41 0.058 0.158 0.027 0.271 0.048 0.34 0.063 0.069 0.015 0.187 0.044 0.352 0.087 0.165 0.042 0.265 0.067 0.3 0.075 0.038 0.008 0.15 0.04 0.335 0.098 0.181 0.058 0.287 0.09 0.317 0.098v0l-0.594 1.759c-1.258-0.346-2.365-0.519-3.323-0.519v0c-0.554 0-1.044 0.056-1.471 0.168-0.427 0.115-0.756 0.252-0.987 0.409-0.231 0.162-0.419 0.348-0.565 0.56-0.146 0.208-0.24 0.392-0.283 0.554-0.042 0.158-0.063 0.313-0.063 0.467v0c0 0.385 0.2 0.727 0.6 1.027 0.4 0.3 0.898 0.544 1.494 0.732 0.596 0.188 1.242 0.412 1.938 0.67 0.692 0.258 1.336 0.529 1.933 0.813 0.596 0.288 1.094 0.69 1.494 1.206 0.4 0.515 0.6 1.111 0.6 1.788v0c0 0.385-0.05 0.758-0.15 1.119-0.096 0.362-0.283 0.74-0.56 1.137-0.277 0.392-0.635 0.733-1.073 1.021-0.435 0.285-1.019 0.521-1.753 0.709-0.731 0.188-1.571 0.283-2.521 0.283v0c-1.435 0-3.011-0.352-4.731-1.056v0l0.646-1.748c0.969 0.358 1.76 0.612 2.371 0.762 0.615 0.15 1.219 0.225 1.812 0.225v0c2.292 0 3.438-0.729 3.438-2.187v0c0-0.319-0.113-0.6-0.34-0.842-0.223-0.242-0.523-0.442-0.9-0.6-0.377-0.154-0.802-0.313-1.275-0.479-0.473-0.165-0.956-0.317-1.448-0.455-0.496-0.142-0.981-0.329-1.454-0.56-0.473-0.227-0.898-0.479-1.275-0.756-0.373-0.277-0.673-0.637-0.9-1.078-0.227-0.442-0.34-0.94-0.34-1.495v0c0-0.338 0.054-0.683 0.161-1.032 0.112-0.354 0.313-0.725 0.606-1.114 0.296-0.392 0.665-0.735 1.108-1.027 0.442-0.296 1.031-0.54 1.765-0.732 0.738-0.192 1.573-0.288 2.504-0.289zM113.53 169.862v0c1.031 0 1.906 0.119 2.625 0.358 0.719 0.238 1.273 0.588 1.662 1.05 0.388 0.458 0.667 0.969 0.836 1.535 0.169 0.562 0.254 1.21 0.254 1.944v0 9.293h-1.633l-0.536-1.269c-1.135 1.035-2.438 1.552-3.911 1.552v0c-1.315 0-2.429-0.396-3.341-1.188-0.911-0.796-1.367-1.725-1.367-2.787v0c0-0.562 0.104-1.067 0.312-1.517 0.208-0.454 0.506-0.831 0.894-1.131 0.388-0.3 0.833-0.556 1.332-0.767 0.496-0.212 1.075-0.373 1.737-0.485 0.662-0.112 1.327-0.19 1.996-0.236 0.665-0.05 1.396-0.075 2.192-0.075v0-1.096c0-0.319-0.012-0.596-0.035-0.831-0.023-0.235-0.1-0.517-0.23-0.848-0.131-0.327-0.31-0.596-0.537-0.808-0.223-0.212-0.56-0.394-1.009-0.548-0.454-0.154-0.99-0.231-1.61-0.23v0c-0.958 0-2.196 0.21-3.715 0.628v0l-0.439-1.69c1.538-0.569 3.046-0.854 4.523-0.854zM116.582 181.083v-3.196h-0.854c-0.538 0-1.004 0.01-1.396 0.029-0.396 0.019-0.86 0.073-1.39 0.161-0.531 0.088-0.963 0.213-1.298 0.375-0.338 0.158-0.629 0.39-0.871 0.698-0.238 0.304-0.358 0.667-0.358 1.091v0c0 0.592 0.298 1.117 0.894 1.575 0.596 0.462 1.308 0.692 2.135 0.692v0c1.211 0 2.258-0.475 3.138-1.425zM123.978 184.042v-13.914h1.621l0.508 1.182c1.792-0.977 3.425-1.465 4.898-1.465v0c0.761 0 1.425 0.119 1.99 0.358 0.562 0.242 0.998 0.544 1.309 0.905 0.308 0.362 0.554 0.815 0.739 1.362 0.185 0.55 0.302 1.075 0.352 1.575 0.05 0.496 0.075 1.063 0.075 1.702v0 8.295h-2.308v-8.451c0-2.442-1.052-3.663-3.156-3.663v0c-1.088 0-2.327 0.362-3.715 1.084v0 11.03zM149.979 184.042v-20.012h3.38l6.421 12.138 6.525-12.138h3.167v20.012h-2.394v-16.58l-6.156 10.846h-2.394l-6.155-10.846v16.58zM179.568 169.862v0c1.035 0 1.911 0.119 2.63 0.358 0.719 0.238 1.273 0.588 1.662 1.05 0.388 0.458 0.667 0.969 0.836 1.535 0.169 0.562 0.254 1.21 0.254 1.944v0 9.293h-1.633l-0.536-1.269c-1.135 1.035-2.44 1.552-3.917 1.552v0c-1.311 0-2.423-0.396-3.335-1.188-0.911-0.796-1.367-1.725-1.367-2.787v0c0-0.562 0.104-1.067 0.312-1.517 0.204-0.454 0.502-0.831 0.894-1.131 0.388-0.3 0.831-0.556 1.327-0.767 0.5-0.212 1.081-0.373 1.742-0.485 0.662-0.112 1.325-0.19 1.99-0.236 0.669-0.05 1.402-0.075 2.198-0.075v0-1.096c0-0.319-0.012-0.596-0.034-0.831-0.023-0.235-0.1-0.517-0.231-0.848-0.131-0.327-0.31-0.596-0.537-0.808-0.227-0.212-0.565-0.394-1.015-0.548-0.45-0.154-0.985-0.231-1.604-0.23v0c-0.958 0-2.198 0.21-3.721 0.628v0l-0.433-1.69c1.538-0.569 3.044-0.854 4.518-0.854zM182.625 181.083v-3.196h-0.859c-0.535 0-0.998 0.01-1.391 0.029-0.396 0.019-0.86 0.073-1.39 0.161-0.531 0.088-0.965 0.213-1.304 0.375-0.338 0.158-0.627 0.39-0.865 0.698-0.238 0.304-0.358 0.667-0.358 1.091v0c0 0.592 0.298 1.117 0.894 1.575 0.596 0.462 1.308 0.692 2.135 0.692v0c1.211 0 2.258-0.475 3.138-1.425zM197.048 188.635v0c0-0.142-0.019-0.271-0.058-0.387-0.035-0.119-0.112-0.225-0.231-0.317-0.115-0.096-0.223-0.177-0.323-0.243-0.1-0.065-0.263-0.14-0.49-0.225-0.231-0.085-0.421-0.15-0.571-0.196-0.15-0.046-0.396-0.119-0.739-0.219-0.346-0.096-0.617-0.177-0.813-0.242v0l0.663-2.481c-0.546-0.085-1.054-0.219-1.523-0.404-0.469-0.181-0.933-0.45-1.39-0.807-0.462-0.358-0.854-0.783-1.177-1.275-0.327-0.492-0.588-1.11-0.785-1.852-0.196-0.742-0.294-1.569-0.294-2.481v0c0-1.096 0.131-2.085 0.392-2.965 0.265-0.877 0.615-1.594 1.05-2.152 0.438-0.562 0.952-1.027 1.541-1.396 0.592-0.369 1.198-0.633 1.817-0.79 0.623-0.154 1.271-0.231 1.944-0.231v0c1.335 0 2.636 0.277 3.906 0.831v0l-0.566 1.69c-1.042-0.358-2.061-0.537-3.057-0.537v0c-0.488 0-0.948 0.044-1.379 0.133-0.431 0.092-0.86 0.256-1.287 0.491-0.431 0.235-0.798 0.537-1.101 0.905-0.304 0.373-0.55 0.86-0.739 1.46-0.188 0.6-0.283 1.29-0.283 2.071v0c0 0.854 0.098 1.608 0.295 2.261 0.2 0.65 0.46 1.177 0.778 1.581 0.319 0.404 0.702 0.733 1.148 0.986 0.446 0.254 0.896 0.431 1.35 0.531 0.454 0.096 0.944 0.144 1.472 0.144v0c0.885 0 1.767-0.154 2.647-0.461v0l0.566 1.592c-1.211 0.458-2.394 0.71-3.548 0.756v0l-0.398 1.552c0.019 0.008 0.094 0.031 0.225 0.069 0.131 0.038 0.229 0.067 0.294 0.086 0.069 0.019 0.179 0.056 0.329 0.11 0.15 0.058 0.267 0.11 0.352 0.156 0.085 0.046 0.196 0.11 0.334 0.19 0.142 0.081 0.256 0.163 0.341 0.248 0.085 0.085 0.175 0.188 0.271 0.312 0.1 0.119 0.181 0.242 0.242 0.369 0.062 0.127 0.112 0.275 0.15 0.444 0.035 0.169 0.052 0.348 0.052 0.537v0c0 0.665-0.258 1.261-0.773 1.788-0.515 0.527-1.215 0.79-2.1 0.79v0c-0.196 0-0.41-0.017-0.64-0.051-0.231-0.031-0.477-0.079-0.739-0.145-0.262-0.065-0.477-0.123-0.646-0.173-0.169-0.046-0.394-0.112-0.675-0.196-0.285-0.085-0.454-0.137-0.507-0.156v0l0.363-1.28c1.473 0.442 2.44 0.663 2.902 0.663v0c0.431 0 0.773-0.106 1.027-0.317 0.254-0.212 0.381-0.467 0.38-0.767zM210.189 169.862v0c1.927 0 3.511 0.613 4.754 1.841 1.246 1.231 1.869 2.931 1.869 5.099v0c0 2.3-0.637 4.129-1.91 5.487-1.273 1.358-2.919 2.036-4.938 2.036v0c-1.923 0-3.496-0.637-4.719-1.909-1.219-1.273-1.829-2.998-1.829-5.175v0c0-2.246 0.621-4.038 1.864-5.377 1.246-1.335 2.883-2.002 4.909-2.002zM209.993 171.83v0c-1.154 0-2.163 0.446-3.029 1.338-0.865 0.892-1.298 2.117-1.298 3.675v0c0 1.55 0.423 2.856 1.27 3.917 0.846 1.061 1.94 1.592 3.282 1.592v0c1.238 0 2.271-0.469 3.098-1.408 0.827-0.938 1.24-2.163 1.24-3.674v0c0-0.865-0.135-1.65-0.404-2.354-0.265-0.704-0.617-1.277-1.055-1.719-0.435-0.442-0.919-0.781-1.454-1.016-0.538-0.235-1.088-0.352-1.65-0.351zM221.173 184.042v-13.914h1.621l0.508 1.182c1.792-0.977 3.427-1.465 4.904-1.465v0c0.758 0 1.419 0.119 1.984 0.358 0.562 0.242 0.998 0.544 1.31 0.905 0.308 0.362 0.554 0.815 0.738 1.362 0.185 0.55 0.302 1.075 0.352 1.575 0.054 0.496 0.081 1.063 0.081 1.702v0 8.295h-2.313v-8.451c0-2.442-1.052-3.663-3.156-3.663v0c-1.088 0-2.327 0.362-3.715 1.084v0 11.03zM244.924 184.042l7.107-20.012h2.723l7.114 20.012h-2.423l-2.031-5.815h-8.255l-2.025 5.815zM256.681 176.127l-3.392-9.761-3.409 9.761zM266.725 170.128l0.438 1.044c1.173-0.873 2.467-1.31 3.883-1.31v0c0.977 0 1.865 0.183 2.665 0.548v0l-0.704 1.846c-0.735-0.285-1.496-0.427-2.284-0.426v0c-1.173 0-2.277 0.325-3.311 0.975v0 11.237h-2.308v-13.914zM275.684 177.322v0c0-1.2 0.167-2.279 0.502-3.237 0.338-0.958 0.804-1.742 1.396-2.354 0.592-0.608 1.285-1.075 2.077-1.401 0.796-0.323 1.654-0.485 2.573-0.485v0c1.108 0 2.229 0.248 3.363 0.744v0-7.828h2.314v21.281h-1.61l-0.381-0.871c-1.304 0.769-2.665 1.154-4.084 1.154v0c-0.581 0-1.148-0.071-1.702-0.213-0.554-0.138-1.104-0.383-1.65-0.733-0.542-0.346-1.017-0.781-1.425-1.304-0.412-0.519-0.742-1.186-0.992-2.002-0.254-0.819-0.381-1.736-0.381-2.751zM282.595 182.421v0c1.023 0 2.023-0.262 3-0.784v0-9.3c-1.004-0.45-2.013-0.675-3.028-0.675v0c-0.431 0-0.848 0.046-1.252 0.139-0.404 0.096-0.817 0.265-1.241 0.507-0.423 0.246-0.786 0.562-1.09 0.946-0.304 0.385-0.556 0.894-0.756 1.529-0.196 0.635-0.294 1.36-0.294 2.175v0c0 0.846 0.104 1.6 0.312 2.262 0.208 0.662 0.471 1.188 0.79 1.58 0.319 0.396 0.694 0.721 1.125 0.975 0.431 0.254 0.844 0.425 1.24 0.514 0.392 0.088 0.79 0.133 1.194 0.132zM299.106 169.862v0c0.673 0 1.281 0.081 1.823 0.243 0.538 0.165 0.986 0.375 1.344 0.628 0.358 0.254 0.665 0.585 0.923 0.993 0.258 0.408 0.454 0.802 0.589 1.182 0.138 0.381 0.244 0.838 0.317 1.373 0.077 0.535 0.125 1 0.144 1.396 0.019 0.392 0.029 0.858 0.029 1.397v0 1.096h-9.565c0 0.508 0.115 1.011 0.346 1.511 0.231 0.504 0.554 0.965 0.97 1.385 0.419 0.415 0.969 0.756 1.649 1.021 0.681 0.262 1.435 0.392 2.262 0.392v0c0.977 0 2.033-0.169 3.167-0.508v0l0.41 1.581c-1.511 0.515-2.996 0.773-4.454 0.773v0c-1.023 0-1.931-0.137-2.723-0.409-0.792-0.273-1.431-0.627-1.915-1.062-0.485-0.438-0.881-0.963-1.189-1.575-0.312-0.608-0.527-1.215-0.646-1.823-0.115-0.604-0.173-1.244-0.173-1.921v0c0-1.042 0.127-1.996 0.381-2.861 0.254-0.862 0.596-1.586 1.027-2.175 0.431-0.585 0.936-1.079 1.517-1.483 0.577-0.404 1.183-0.698 1.817-0.883 0.631-0.181 1.281-0.271 1.95-0.271zM298.61 171.858v0c-0.827 0-1.538 0.229-2.134 0.687-0.596 0.454-1.031 1.019-1.304 1.696-0.269 0.677-0.404 1.404-0.404 2.181v0h7.263c0-3.042-1.14-4.563-3.421-4.564zM295.766 163.759l1.298-1.535 5.123 4.563-1.125 1.408zM307.933 177.408v0c0-1.1 0.133-2.088 0.398-2.965 0.262-0.877 0.612-1.594 1.05-2.152 0.435-0.562 0.948-1.027 1.54-1.396 0.592-0.369 1.198-0.633 1.817-0.79 0.619-0.154 1.267-0.231 1.944-0.231v0c1.335 0 2.634 0.277 3.9 0.831v0l-0.565 1.69c-1.042-0.358-2.06-0.537-3.052-0.537v0c-0.488 0-0.95 0.044-1.385 0.133-0.431 0.092-0.86 0.256-1.286 0.49-0.427 0.235-0.792 0.537-1.096 0.906-0.308 0.373-0.556 0.86-0.744 1.46-0.185 0.6-0.277 1.29-0.277 2.071v0c0 0.854 0.098 1.606 0.294 2.255 0.196 0.654 0.454 1.183 0.773 1.587 0.319 0.404 0.702 0.733 1.148 0.986 0.446 0.254 0.896 0.431 1.35 0.531 0.458 0.096 0.95 0.144 1.477 0.144v0c0.881 0 1.763-0.154 2.648-0.461v0l0.559 1.592c-1.331 0.515-2.669 0.773-4.015 0.773v0c-0.619 0-1.211-0.062-1.777-0.184-0.569-0.123-1.148-0.346-1.736-0.67-0.585-0.323-1.09-0.735-1.517-1.234-0.427-0.496-0.775-1.16-1.045-1.991-0.269-0.831-0.404-1.777-0.403-2.838zM328.909 171.928v0c-1.1 0-2.34 0.362-3.721 1.084v0 11.03h-2.308v-21.281h2.308v8.422c1.642-0.873 3.183-1.31 4.621-1.309v0c0.619 0 1.175 0.079 1.667 0.236 0.492 0.162 0.898 0.362 1.217 0.6 0.319 0.238 0.594 0.548 0.825 0.929 0.231 0.381 0.406 0.738 0.525 1.073 0.115 0.335 0.204 0.731 0.265 1.189 0.062 0.462 0.098 0.837 0.11 1.125 0.015 0.292 0.023 0.637 0.023 1.032v0 7.984h-2.365v-8.411c0-2.469-1.056-3.704-3.167-3.703zM345.5 169.862v0c0.673 0 1.281 0.081 1.823 0.243 0.538 0.165 0.986 0.375 1.344 0.628 0.358 0.254 0.665 0.585 0.923 0.993 0.258 0.408 0.454 0.802 0.589 1.182 0.138 0.381 0.244 0.838 0.317 1.373 0.077 0.535 0.125 1 0.144 1.396 0.019 0.392 0.029 0.858 0.029 1.397v0 1.096h-9.565c0 0.508 0.115 1.011 0.346 1.511 0.231 0.504 0.554 0.965 0.97 1.385 0.419 0.415 0.969 0.756 1.649 1.021 0.681 0.262 1.435 0.392 2.262 0.392v0c0.977 0 2.033-0.169 3.167-0.508v0l0.41 1.581c-1.511 0.515-2.996 0.773-4.454 0.773v0c-1.023 0-1.931-0.137-2.723-0.409-0.792-0.273-1.431-0.627-1.915-1.062-0.485-0.438-0.881-0.963-1.189-1.575-0.312-0.608-0.527-1.215-0.646-1.823-0.115-0.604-0.173-1.244-0.173-1.921v0c0-1.042 0.127-1.996 0.381-2.861 0.254-0.862 0.596-1.586 1.027-2.175 0.431-0.585 0.936-1.079 1.517-1.483 0.577-0.404 1.183-0.698 1.817-0.883 0.631-0.181 1.281-0.271 1.95-0.271zM345.004 171.858v0c-0.827 0-1.538 0.229-2.135 0.687-0.596 0.454-1.031 1.019-1.303 1.696-0.269 0.677-0.404 1.404-0.404 2.181v0h7.263c0-3.042-1.14-4.563-3.421-4.564z" fill="#6b7280" fill-rule="nonzero" stroke="none" stroke-width="1" stroke-linecap="butt" stroke-linejoin="miter" stroke-miterlimit="10" stroke-dasharray="" stroke-dashoffset="0" font-family="none" font-weight="none" font-size="none" text-anchor="none" style="mix-blend-mode: normal" data-fill-palette-color="secondary" id="text-1"></path></g></g><g transform="matrix(1,0,0,1,29.33176499999999,38.99970409620995)"><svg viewBox="0 0 316.416 44.97166180758017" height="44.97166180758017" width="316.416"><g><svg viewBox="0 0 316.416 44.97166180758017" height="44.97166180758017" width="316.416"><g><svg viewBox="0 0 316.416 44.97166180758017" height="44.97166180758017" width="316.416"><g id="textblocktransform"><svg viewBox="0 0 316.416 44.97166180758017" height="44.97166180758017" width="316.416" id="textblock"><g><svg viewBox="0 0 316.416 44.97166180758017" height="44.97166180758017" width="316.416"><g transform="matrix(1,0,0,1,0,0)"><svg width="316.416" viewBox="0 -38.25 274.38 39" height="44.97166180758017" data-palette-color="#6b7280"><path d="M0-34.95Q1.45-36.45 3.68-37.35 5.9-38.25 8.08-38.25 10.25-38.25 11.65-37.38 13.05-36.5 13.05-35.2L13.05-35.2 13.05-5.55Q13.05-4.2 13.7-3.43 14.35-2.65 15.7-2.65 17.05-2.65 18.8-4.1L18.8-4.1 19.7-2.9Q15.7 0.75 11.7 0.75L11.7 0.75Q5.55 0.75 5.55-6.6L5.55-6.6 5.55-35.85Q2.8-35.15 1.35-33.4L1.35-33.4 0-34.95ZM24.35-27.9Q23.7-30.55 23.32-32.33 22.95-34.1 22.95-35.18 22.95-36.25 23.9-37.25 24.85-38.25 26.5-38.25 28.15-38.25 29.1-37.25 30.05-36.25 30.05-35.18 30.05-34.1 29.67-32.33 29.3-30.55 28.65-27.9 28-25.25 27.7-23.75L27.7-23.75 25.3-23.75Q25-25.25 24.35-27.9ZM56.65-25L64.15-25 64.15-5.55Q64.15-4.2 64.8-3.43 65.45-2.65 66.8-2.65 68.15-2.65 69.9-4.1L69.9-4.1 70.8-2.9Q66.8 0.75 62.8 0.75L62.8 0.75Q58.05 0.75 56.95-3.7L56.95-3.7Q54.34 0.75 49.3 0.75L49.3 0.75Q43.55 0.75 40.55-2.98 37.55-6.7 37.55-12.48 37.55-18.25 40.77-22 44-25.75 49.8-25.75L49.8-25.75Q54.25-25.75 56.65-22.2L56.65-22.2 56.65-25ZM46.7-20.1Q45.3-17.3 45.3-12.5 45.3-7.7 46.7-4.9 48.09-2.1 50.97-2.1 53.84-2.1 55.37-4.93 56.9-7.75 56.9-12.5 56.9-17.25 55.37-20.08 53.84-22.9 50.97-22.9 48.09-22.9 46.7-20.1ZM89.44-25.75L89.44-25.75Q90.94-25.75 90.94-22.9L90.94-22.9 90.94-5.55Q90.94-4.2 91.59-3.43 92.24-2.65 93.59-2.65 94.94-2.65 96.69-4.1L96.69-4.1 97.59-2.9Q93.59 0.75 89.59 0.75L89.59 0.75Q83.44 0.75 83.44-6.6L83.44-6.6 83.44-20.65Q81.09-19.7 77.74-19.35L77.74-19.35Q77.34-14.75 75.09-10.15L75.09-10.15 73.04-10.75Q74.44-14.3 74.54-19.2L74.54-19.2Q72.64-19.2 71.47-20.3 70.29-21.4 70.29-23.03 70.29-24.65 71.42-25.78 72.54-26.9 74.17-26.9 75.79-26.9 76.89-25.75 77.99-24.6 77.99-22.8L77.99-22.8 78.94-22.8Q82.89-22.8 87.34-25L87.34-25Q88.79-25.75 89.44-25.75ZM102.64-22.25L98.54-22.25 98.54-24.3 102.64-24.3 102.64-31.5 110.14-31.5 110.14-24.3 115.79-24.3 115.79-22.25 110.14-22.25 110.14-5.55Q110.14-4.2 110.79-3.43 111.44-2.65 112.79-2.65 114.14-2.65 115.89-4.1L115.89-4.1 116.79-2.9Q112.79 0.75 108.79 0.75L108.79 0.75Q102.64 0.75 102.64-6.6L102.64-6.6 102.64-22.25ZM141.54-20.9L141.54-20.9Q140.34-22.75 140.34-24.2 140.34-25.65 141.46-26.78 142.59-27.9 144.19-27.9 145.79-27.9 146.91-26.78 148.04-25.65 148.04-24.1 148.04-22.55 146.49-20.8L146.49-20.8Q150.59-17.8 152.79-14.93 154.99-12.05 154.99-8.28 154.99-4.5 152.14-1.88 149.29 0.75 144.04 0.75L144.04 0.75Q141.64 0.75 139.21-0.3 136.79-1.35 135.54-2.9L135.54-2.9 136.69-4.1Q138.89-2.35 141.44-2.35 143.99-2.35 145.61-3.73 147.24-5.1 147.24-8L147.24-8Q147.24-12.6 143.84-17.6L143.84-17.6 136.29-8.15 135.04-9.25Q138.84-15.4 141.54-20.9ZM178.83-25L186.33-25 186.33-5.55Q186.33-4.2 186.98-3.43 187.63-2.65 188.98-2.65 190.33-2.65 192.08-4.1L192.08-4.1 192.98-2.9Q188.98 0.75 184.98 0.75L184.98 0.75Q180.23 0.75 179.13-3.7L179.13-3.7Q176.53 0.75 171.48 0.75L171.48 0.75Q165.73 0.75 162.73-2.98 159.73-6.7 159.73-12.48 159.73-18.25 162.96-22 166.18-25.75 171.98-25.75L171.98-25.75Q176.43-25.75 178.83-22.2L178.83-22.2 178.83-25ZM168.88-20.1Q167.48-17.3 167.48-12.5 167.48-7.7 168.88-4.9 170.28-2.1 173.16-2.1 176.03-2.1 177.56-4.93 179.08-7.75 179.08-12.5 179.08-17.25 177.56-20.08 176.03-22.9 173.16-22.9 170.28-22.9 168.88-20.1ZM199.71-30.68Q198.53-31.85 198.53-33.5 198.53-35.15 199.71-36.33 200.88-37.5 202.53-37.5 204.18-37.5 205.36-36.33 206.53-35.15 206.53-33.5 206.53-31.85 205.36-30.68 204.18-29.5 202.53-29.5 200.88-29.5 199.71-30.68ZM201.58-25.75L201.58-25.75Q206.28-25.75 206.28-21.7L206.28-21.7 206.28-5.55Q206.28-4.2 206.93-3.43 207.58-2.65 208.93-2.65 210.28-2.65 212.03-4.1L212.03-4.1 212.93-2.9Q208.93 0.75 204.93 0.75L204.93 0.75Q198.78 0.75 198.78-6.6L198.78-6.6 198.78-23.35Q196.03-22.65 194.58-20.9L194.58-20.9 193.23-22.45Q194.68-23.95 196.91-24.85 199.13-25.75 201.58-25.75ZM218.13-25L218.13-25Q222.23-25 225.53-22.5L225.53-22.5Q227.43-24.3 229.43-25.03 231.43-25.75 234.55-25.75 237.68-25.75 239.65-23.78 241.63-21.8 241.63-18.4L241.63-18.4 241.63-5.55Q241.63-4.2 242.28-3.43 242.93-2.65 244.28-2.65 245.63-2.65 247.38-4.1L247.38-4.1 248.28-2.9Q244.28 0.75 240.28 0.75L240.28 0.75Q234.13 0.75 234.13-6.6L234.13-6.6 234.13-19.45Q234.13-21 233.18-21.85 232.23-22.7 230.55-22.7 228.88-22.7 227.25-21.35 225.63-20 225.63-17.85L225.63-17.85 225.63 0 218.13 0 218.13-23Q215.88-23 214.13-22.25L214.13-22.25 213.43-24.1Q215.58-25 218.13-25ZM260.98-11.55Q264.23-11.85 266-14.03 267.77-16.2 267.77-18.43 267.77-20.65 266.8-21.85 265.82-23.05 263.85-23.05 261.88-23.05 260.07-20.25 258.27-17.45 258.27-12.75 258.27-8.05 259.98-5.2 261.68-2.35 264.82-2.35L264.82-2.35Q269.63-2.35 272.98-6.1L272.98-6.1 274.38-5.2Q272.68-2.5 269.88-0.88 267.07 0.75 263.57 0.75L263.57 0.75Q257.63 0.75 254.08-3.18 250.53-7.1 250.53-12.65 250.53-18.2 254.3-21.98 258.07-25.75 264.77-25.75L264.77-25.75Q269.18-25.75 271.68-23.7 274.18-21.65 274.18-18.5 274.18-15.35 271.4-12.68 268.63-10 264.07-10L264.07-10Q262.52-10 261.07-10.35L261.07-10.35 260.98-11.55Z" opacity="1" transform="matrix(1,0,0,1,0,0)" fill="#6b7280" class="wordmark-text-0" data-fill-palette-color="primary" id="text-0"></path></svg></g></svg></g></svg></g></svg></g><g></g></svg></g></svg></g></svg></g><defs></defs></svg><rect width="375.07953" height="122.97107000000007" fill="none" stroke="none" visibility="hidden"></rect></g></svg></g></svg>